<?xml version="1.0" encoding="iso-8859-1"?>
<!-- Generator: Adobe Illustrator 19.0.0, SVG Export Plug-In . SVG Version: 6.00 Build 0)  -->
<svg version="1.1" id="Layer_1" xmlns="http://www.w3.org/2000/svg" xmlns:xlink="http://www.w3.org/1999/xlink" x="0px" y="0px"
	 viewBox="0 0 512 512" style="enable-background:new 0 0 512 512;" xml:space="preserve">
<path style="fill:#E4EAF6;" d="M450.207,512H61.793c-9.751,0-17.655-7.904-17.655-17.655V17.655C44.138,7.904,52.042,0,61.793,0
	h388.414c9.751,0,17.655,7.904,17.655,17.655v476.69C467.862,504.096,459.958,512,450.207,512z"/>
<path style="fill:#96D2FF;" d="M432.552,361.931H79.448c-4.875,0-8.828-3.953-8.828-8.828V35.31c0-4.875,3.953-8.828,8.828-8.828
	h353.103c4.875,0,8.828,3.953,8.828,8.828v317.793C441.379,357.978,437.427,361.931,432.552,361.931z"/>
<path style="fill:#EBC89B;" d="M361.931,281.681v-43.336h-88.276v43.336l-35.198,12.266c-10.639,3.708-17.768,13.74-17.768,25.007
	v42.977h194.207v-42.977c0-11.267-7.128-21.3-17.768-25.007L361.931,281.681z"/>
<path style="fill:#EB5555;" d="M361.931,281.681l-44.138,18.457l-44.138-18.457l-35.198,12.266
	c-10.639,3.708-17.768,13.74-17.768,25.007v42.977h194.207v-42.977c0-11.267-7.128-21.3-17.768-25.007L361.931,281.681z"/>
<path style="fill:#6E5A5F;" d="M392.602,115.313l3.447-35.864c-77.62,0-118.035,7.912-136.273,13.143
	c-7.509,2.153-12.605,9.108-12.605,16.919v5.248c-9.75,0-17.655,7.904-17.655,17.655v57.379h176.552v-57.379
	C406.069,124.114,400.32,117.201,392.602,115.313z"/>
<path style="fill:#F5DCAA;" d="M392.828,176.552c-1.55,0-3.031,0.28-4.414,0.77v-18.425c0-9.75-7.904-17.655-17.655-17.655H264.828
	c-9.751,0-17.655,7.905-17.655,17.655v18.425c-1.383-0.49-2.863-0.77-4.414-0.77c-7.313,0-13.241,5.929-13.241,13.241v8.828
	c0,7.313,5.929,13.241,13.241,13.241c1.55,0,3.031-0.28,4.414-0.769v10.886c0,10.031,5.667,19.201,14.639,23.687l36.243,18.121
	c12.426,6.214,27.052,6.214,39.478,0l36.243-18.121c8.972-4.486,14.639-13.656,14.639-23.687v-10.886
	c1.383,0.489,2.863,0.769,4.414,0.769c7.313,0,13.241-5.929,13.241-13.241v-8.828C406.069,182.479,400.14,176.552,392.828,176.552z"
	/>
<g>
	<polygon style="fill:#FF7D7D;" points="317.793,300.138 273.655,273.655 264.828,282.483 300.138,317.793 	"/>
	<polygon style="fill:#FF7D7D;" points="317.793,300.138 361.931,273.655 370.759,282.483 335.448,317.793 	"/>
</g>
<path style="fill:#EBC89B;" d="M220.69,265.124v-17.952h-52.966v17.952c0,6.977-4.109,13.3-10.485,16.134l-26.754,11.891
	c-9.562,4.25-15.726,13.734-15.726,24.2v44.583h158.897v-44.583c0-10.465-6.164-19.949-15.727-24.2l-26.754-11.891
	C224.799,278.424,220.69,272.102,220.69,265.124z"/>
<path style="fill:#F5DCAA;" d="M256,238.345l-48.654,27.802c-8.141,4.652-18.136,4.652-26.279,0l-48.653-27.802v-97.103H256V238.345
	z"/>
<path style="fill:#5B5D6E;" d="M194.207,79.448c-68.255,0-88.276,67.188-88.276,150.069c0,12.184,0.948,23.968,2.56,35.31h32.75
	v-88.276l105.931-17.655v105.931h32.75c1.612-11.342,2.56-23.126,2.56-35.31C282.483,146.636,262.462,79.448,194.207,79.448z"/>
<path style="fill:#AFE682;" d="M257.929,293.149l-15.345-6.819c-8.248,18.527-26.787,31.464-48.377,31.464
	s-40.129-12.937-48.377-31.465l-15.345,6.819c-9.564,4.252-15.726,13.735-15.726,24.201v26.927l26.483,8.828l0.001,8.828h105.93
	v-8.828l26.483-8.828v-26.927C273.655,306.882,267.492,297.399,257.929,293.149z"/>
<g>
	<path style="fill:#C7CFE2;" d="M167.724,406.069h-52.966c-4.875,0-8.828-3.953-8.828-8.828l0,0c0-4.875,3.953-8.828,8.828-8.828
		h52.966c4.875,0,8.828,3.953,8.828,8.828l0,0C176.552,402.116,172.599,406.069,167.724,406.069z"/>
	<path style="fill:#C7CFE2;" d="M397.241,441.379H291.31c-4.875,0-8.828-3.953-8.828-8.828l0,0c0-4.875,3.953-8.828,8.828-8.828
		h105.931c4.875,0,8.828,3.953,8.828,8.828l0,0C406.069,437.427,402.116,441.379,397.241,441.379z"/>
	<path style="fill:#C7CFE2;" d="M397.241,406.069H256c-4.875,0-8.828-3.953-8.828-8.828l0,0c0-4.875,3.953-8.828,8.828-8.828
		h141.241c4.875,0,8.828,3.953,8.828,8.828l0,0C406.069,402.116,402.116,406.069,397.241,406.069z"/>
	<path style="fill:#C7CFE2;" d="M335.448,476.69H229.517c-4.875,0-8.828-3.953-8.828-8.828l0,0c0-4.875,3.953-8.828,8.828-8.828
		h105.931c4.875,0,8.828,3.953,8.828,8.828l0,0C344.276,472.737,340.323,476.69,335.448,476.69z"/>
	<path style="fill:#C7CFE2;" d="M256,441.379H114.759c-4.875,0-8.828-3.953-8.828-8.828l0,0c0-4.875,3.953-8.828,8.828-8.828H256
		c4.875,0,8.828,3.953,8.828,8.828l0,0C264.828,437.427,260.875,441.379,256,441.379z"/>
	<path style="fill:#C7CFE2;" d="M220.69,406.069h-17.655c-4.875,0-8.828-3.953-8.828-8.828l0,0c0-4.875,3.953-8.828,8.828-8.828
		h17.655c4.875,0,8.828,3.953,8.828,8.828l0,0C229.517,402.116,225.565,406.069,220.69,406.069z"/>
	<path style="fill:#C7CFE2;" d="M194.207,476.69h-26.483c-4.875,0-8.828-3.953-8.828-8.828l0,0c0-4.875,3.953-8.828,8.828-8.828
		h26.483c4.875,0,8.828,3.953,8.828,8.828l0,0C203.034,472.737,199.082,476.69,194.207,476.69z"/>
</g>
<g>
</g>
<g>
</g>
<g>
</g>
<g>
</g>
<g>
</g>
<g>
</g>
<g>
</g>
<g>
</g>
<g>
</g>
<g>
</g>
<g>
</g>
<g>
</g>
<g>
</g>
<g>
</g>
<g>
</g>
</svg>
