<?xml version="1.0" encoding="iso-8859-1"?>
<!-- Generator: Adobe Illustrator 19.0.0, SVG Export Plug-In . SVG Version: 6.00 Build 0)  -->
<svg version="1.1" id="Layer_1" xmlns="http://www.w3.org/2000/svg" xmlns:xlink="http://www.w3.org/1999/xlink" x="0px" y="0px"
	 viewBox="0 0 512 512" style="enable-background:new 0 0 512 512;" xml:space="preserve">
<path style="fill:#58718C;" d="M324.267,494.933H187.733c-9.422,0-17.067-7.639-17.067-17.067v-51.2
	c0-9.428,7.645-17.067,17.067-17.067h136.533c9.422,0,17.067,7.639,17.067,17.067v51.2
	C341.333,487.294,333.689,494.933,324.267,494.933z"/>
<path style="fill:#50667F;" d="M324.267,409.6H256v85.333h68.267c9.422,0,17.067-7.639,17.067-17.067v-51.2
	C341.333,417.239,333.689,409.6,324.267,409.6z"/>
<path style="fill:#58718C;" d="M460.8,0H51.2C22.967,0,0,22.967,0,51.2v290.133l11.378,11.378h489.244L512,341.333V51.2
	C512,22.967,489.033,0,460.8,0z"/>
<path style="fill:#50667F;" d="M460.8,0H256v352.711h244.622L512,341.333V51.2C512,22.967,489.033,0,460.8,0z"/>
<path style="fill:#E6EEFF;" d="M477.867,352.711H34.133V51.2c0-9.425,7.641-17.067,17.067-17.067h409.6
	c9.425,0,17.067,7.641,17.067,17.067V352.711z"/>
<path style="fill:#DAE2F2;" d="M256,352.711h221.867V51.2c0-9.425-7.641-17.067-17.067-17.067H256V352.711z"/>
<path style="fill:#4DA6FF;" d="M318.722,147.911c-24.292-0.039-46.42,9.527-62.722,25.145
	c-17.522,16.498-28.444,39.935-28.444,65.877v34.133H409.6v-32.925C409.6,190.153,368.711,147.99,318.722,147.911z"/>
<path style="fill:#4596E6;" d="M409.6,240.142v32.925H256V173.056c16.302-15.618,38.431-25.184,62.722-25.145
	C368.711,147.99,409.6,190.153,409.6,240.142z"/>
<path style="fill:#7B90A9;" d="M0,341.333v51.2c0,28.233,22.967,51.2,51.2,51.2h409.6c28.233,0,51.2-22.967,51.2-51.2v-51.2H0z"/>
<path style="fill:#72859C;" d="M256,443.733h204.8c28.233,0,51.2-22.967,51.2-51.2v-51.2H256V443.733z"/>
<path style="fill:#7B90A9;" d="M392.533,512H119.467c-9.422,0-17.067-7.639-17.067-17.067s7.645-17.067,17.067-17.067h273.067
	c9.422,0,17.067,7.639,17.067,17.067S401.955,512,392.533,512z"/>
<path style="fill:#72859C;" d="M392.533,477.867H256V512h136.533c9.422,0,17.067-7.639,17.067-17.067
	S401.955,477.867,392.533,477.867z"/>
<path style="fill:#7B90A9;" d="M426.667,307.2H210.489c-9.422,0-17.067-7.639-17.067-17.067s7.645-17.067,17.067-17.067h216.178
	c9.422,0,17.067,7.639,17.067,17.067C443.733,299.561,436.089,307.2,426.667,307.2z"/>
<path style="fill:#72859C;" d="M426.667,273.067H256V307.2h170.667c9.422,0,17.067-7.639,17.067-17.067
	S436.089,273.067,426.667,273.067z"/>
<g>
	<path style="fill:#A1A7B3;" d="M176.356,170.667h-102.4c-9.422,0-17.067-7.639-17.067-17.067c0-9.428,7.645-17.067,17.067-17.067
		h102.4c9.422,0,17.067,7.639,17.067,17.067C193.422,163.028,185.778,170.667,176.356,170.667z"/>
	<path style="fill:#A1A7B3;" d="M176.356,238.933h-102.4c-9.422,0-17.067-7.639-17.067-17.067c0-9.428,7.645-17.067,17.067-17.067
		h102.4c9.422,0,17.067,7.639,17.067,17.067C193.422,231.294,185.778,238.933,176.356,238.933z"/>
</g>
<path style="fill:#FFC380;" d="M318.578,182.044c-31.366,0-56.889-25.523-56.889-56.889s25.523-56.889,56.889-56.889
	s56.889,25.523,56.889,56.889S349.944,182.044,318.578,182.044z"/>
<g>
</g>
<g>
</g>
<g>
</g>
<g>
</g>
<g>
</g>
<g>
</g>
<g>
</g>
<g>
</g>
<g>
</g>
<g>
</g>
<g>
</g>
<g>
</g>
<g>
</g>
<g>
</g>
<g>
</g>
</svg>
