<?xml version="1.0" encoding="iso-8859-1"?>
<!-- Generator: Adobe Illustrator 19.0.0, SVG Export Plug-In . SVG Version: 6.00 Build 0)  -->
<svg version="1.1" id="Layer_1" xmlns="http://www.w3.org/2000/svg" xmlns:xlink="http://www.w3.org/1999/xlink" x="0px" y="0px"
	 viewBox="0 0 512 512" style="enable-background:new 0 0 512 512;" xml:space="preserve">
<path style="fill:#B999FF;" d="M48.348,511.783c-4.86,0-9.553-2.369-12.408-6.568l-1.091-1.604c-3.869-5.69-3.37-13.283,1.21-18.417
	l0.862-0.966c33.553-37.847,35.084-96.393,3.612-139.177C14.016,309.001,0,267.218,0,224.217c0-60.27,26.925-116.798,75.816-159.169
	C124.055,23.241,188.045,0.217,256,0.217s131.945,23.024,180.184,64.831C485.075,107.42,512,163.947,512,224.217
	s-26.925,116.798-75.816,159.169C387.945,425.193,323.955,448.217,256,448.217c-28.292,0-71.099-10.312-91.599-15.719
	c-27.81,34.875-65.938,61.859-110.886,78.364C51.822,511.484,50.074,511.783,48.348,511.783z"/>
<path style="fill:#A680FF;" d="M436.184,383.387C485.075,341.015,512,284.488,512,224.217S485.075,107.42,436.184,65.048
	C387.945,23.241,323.955,0.217,256,0.217v448C323.955,448.217,387.945,425.193,436.184,383.387z"/>
<path style="fill:#E6EEFF;" d="M128,271.217c-25.916,0-47-21.084-47-47s21.084-47,47-47s47,21.084,47,47
	S153.916,271.217,128,271.217z"/>
<path style="fill:#DAE2F2;" d="M384,271.217c-25.916,0-47-21.084-47-47s21.084-47,47-47s47,21.084,47,47
	S409.916,271.217,384,271.217z"/>
<path style="fill:#E6EEFF;" d="M256,271.217c-25.916,0-47-21.084-47-47s21.084-47,47-47s47,21.084,47,47
	S281.916,271.217,256,271.217z"/>
<path style="fill:#DAE2F2;" d="M303,224.217c0-25.916-21.084-47-47-47v94C281.916,271.217,303,250.133,303,224.217z"/>
<g>
</g>
<g>
</g>
<g>
</g>
<g>
</g>
<g>
</g>
<g>
</g>
<g>
</g>
<g>
</g>
<g>
</g>
<g>
</g>
<g>
</g>
<g>
</g>
<g>
</g>
<g>
</g>
<g>
</g>
</svg>
