<?xml version="1.0" encoding="iso-8859-1"?>
<!-- Generator: Adobe Illustrator 19.0.0, SVG Export Plug-In . SVG Version: 6.00 Build 0)  -->
<svg version="1.1" id="Layer_1" xmlns="http://www.w3.org/2000/svg" xmlns:xlink="http://www.w3.org/1999/xlink" x="0px" y="0px"
	 viewBox="0 0 512 512" style="enable-background:new 0 0 512 512;" xml:space="preserve">
<path style="fill:#45C1F1;" d="M497.982,251.494l-62.689-20.917c-12.191-4.067-21.757-13.635-25.823-25.827l-15.662-46.963
	c-5.83-17.482,0.765-36.702,16.101-46.922l25.146-16.756c2.991-2.001,4.928-5.219,5.287-8.782c0.352-3.594-0.914-7.124-3.449-9.679
	c-21.922-21.991-47.75-40.064-76.426-52.936c-4.922-2.21-10.765,0.65-12.24,5.84l-23.391,82.374
	c-3.13,11.023-10.757,20.218-21.009,25.332l-36.019,17.967c-5.968,3.031-10.749,7.655-13.873,13.498l-2.25,4.156l3.391,41.651
	c0.449,5.518-4.217,10.091-9.726,9.53l-57.063-5.812c-16.904-1.719-32.59-10.312-43.026-23.528
	c-9.437-11.874-13.561-26.372-11.687-40.776l16.043-112.297c0.523-3.656-1.055-7.28-4.077-9.405
	c-3.023-2.094-6.976-2.313-10.226-0.594C53.635,74.475-1.704,161.282,0.04,260.727c4.792,3.926,6.761,5.538,11.554,9.464
	l61.081-10.167c1.719-0.281,3.5-0.406,5.249-0.406c12.561,0,23.77,7.089,28.988,18.445c13.32,28.987,33.356,54.401,55.924,76.95
	l8.297,8.29c12.453,12.442,15.543,31.459,7.669,47.204l-30.6,61.187c-3.591,7.18-0.633,16.176,6.738,19.359
	c23.781,10.27,49.399,17.001,76.248,19.599c3.897,0.377,7.654-1.923,9.17-5.532l40.76-97.051c4.499-15.811,2.625-32.34-4.28-46.182
	l-7.702-15.404c-7.863-15.726-4.781-34.719,7.65-47.152l43.173-43.18l-1-0.5l66.648,22.372c8.093,2.688,14.654,8.405,18.498,16.061
	c3.813,7.655,4.437,16.311,1.719,24.403l-16.373,49.182c-3.594,10.749-10.03,20.404-18.592,27.903l-99.347,100.459
	c-5.668,5.731-1.334,15.812,6.697,15.119c125.915-10.879,226.052-113.33,233.301-240.247
	C512.006,262.213,506.236,254.248,497.982,251.494z"/>
<path style="fill:#44A4EC;" d="M497.986,251.5l-62.695-20.935c-12.186-4.063-21.755-13.623-25.825-25.81l-15.654-46.963
	c-5.835-17.498,0.766-36.714,16.092-46.932l25.153-16.748c2.984-2,4.921-5.218,5.28-8.78c0.359-3.594-0.906-7.124-3.445-9.687
	c-21.927-21.997-47.752-40.057-76.429-52.93c-4.921-2.219-10.765,0.656-12.241,5.843l-23.388,82.365
	c-3.133,11.03-10.757,20.217-21.013,25.341L267.81,154.23c-4.905,2.469-8.741,6.28-11.78,10.718v302.838l25.091-59.712
	c4.499-15.811,2.625-32.34-4.28-46.182l-7.702-15.404c-7.866-15.748-4.788-34.715,7.647-47.15l43.175-43.181l-1-0.5l66.648,22.372
	c8.093,2.688,14.654,8.405,18.498,16.061c3.813,7.655,4.437,16.311,1.719,24.403l-16.373,49.181
	c-3.594,10.749-10.03,20.404-18.592,27.903l-99.347,100.457c-5.671,5.718-1.336,15.811,6.694,15.123
	c125.914-10.874,226.05-113.33,233.299-240.251C512.008,262.218,506.235,254.25,497.986,251.5z"/>
<g>
	<path style="fill:#87D92B;" d="M418.574,286.715c-5.765-11.53-15.678-19.842-27.841-23.997L326.1,241.283l-54.712-27.528
		l-3.203-38.714c1.602-2.875,3.844-5.124,6.726-6.718l39.675-19.842c12.155-5.749,21.114-16.623,24.638-29.746l26.552-93.738
		c-4.155-1.938-8.319-3.844-12.795-5.78c-4.163-1.594-8.319-3.188-12.803-4.78c-4.156-1.594-8.312-2.875-12.795-4.155
		c-22.716-6.718-46.392-10.249-71.35-10.249c-5.437,0-10.882,0.313-16.318,0.625c-16.318,0.969-31.996,3.531-47.674,7.374
		c-4.796,1.594-9.601,2.875-14.396,4.468c-4.804,1.625-9.601,3.219-14.396,5.124c-4.804,1.938-9.601,4.155-14.404,6.093
		c-4.796,2.219-9.28,4.468-13.756,7.03l-17.279,119.985c-2.555,18.561,2.883,37.433,15.037,52.807
		c13.122,16.622,32.635,27.183,53.757,29.432l64.945,6.718l41.597,20.778l-31.996,31.996c-14.717,14.404-18.232,36.808-8.96,55.368
		l10.562,21.122c5.124,10.562,6.397,23.028,3.844,32.621l-45.44,108.143c11.522,1.281,23.036,2.25,34.879,2.25
		c7.679,0,15.357-0.313,23.036-0.969h0.32l102.065-103.643c10.562-9.28,18.881-21.466,23.356-34.902l16.318-48.932
		C425.292,311.368,424.331,298.244,418.574,286.715z"/>
	<path style="fill:#87D92B;" d="M186.923,356.456l-13.764-13.748c-21.114-21.435-38.714-45.744-52.15-72.616
		c-9.601-19.217-30.074-29.465-50.877-25.934L0.063,256c0,105.581,64.312,196.789,156.137,235.502l39.683-79.678
		C205.155,393.265,201.64,370.86,186.923,356.456z"/>
</g>
<g>
	<path style="fill:#7FCC29;" d="M293.144,260.468l-31.996,31.996c-2.117,2.063-3.469,4.593-5.116,6.968v56.087l6.718,13.435
		c5.124,10.562,6.397,23.028,3.844,32.621l-10.561,25.122v85.271c7.679,0,15.357-0.313,23.036-0.969h0.32l102.064-103.643
		c10.562-9.28,18.881-21.466,23.356-34.902l16.318-48.932c4.164-12.155,3.203-25.278-2.555-36.808
		c-5.765-11.53-15.678-19.842-27.841-23.997l-64.633-21.434l-54.712-27.528l-3.203-38.714c1.602-2.875,3.844-5.124,6.726-6.718
		l39.675-19.842c12.155-5.749,21.114-16.623,24.638-29.746l26.553-93.737c-4.155-1.938-8.319-3.844-12.795-5.78
		c-4.163-1.594-8.319-3.188-12.803-4.78c-4.156-1.594-8.312-2.875-12.795-4.155c-22.716-6.718-46.392-10.249-71.35-10.249V241.94
		L293.144,260.468z"/>
	<path style="fill:#7FCC29;" d="M435.853,74.272l-40.323,26.872c-17.912,11.843-25.911,34.559-18.873,55.024l19.201,57.587
		c4.796,14.404,15.998,25.622,30.394,30.402l85.107,28.465C511.679,267.185,512,261.749,512,256
		C512,184.977,482.887,120.641,435.853,74.272z"/>
</g>
<g>
</g>
<g>
</g>
<g>
</g>
<g>
</g>
<g>
</g>
<g>
</g>
<g>
</g>
<g>
</g>
<g>
</g>
<g>
</g>
<g>
</g>
<g>
</g>
<g>
</g>
<g>
</g>
<g>
</g>
</svg>
