<?xml version="1.0" encoding="iso-8859-1"?>
<!-- Generator: Adobe Illustrator 19.0.0, SVG Export Plug-In . SVG Version: 6.00 Build 0)  -->
<svg version="1.1" id="Layer_1" xmlns="http://www.w3.org/2000/svg" xmlns:xlink="http://www.w3.org/1999/xlink" x="0px" y="0px"
	 viewBox="0 0 512 512" style="enable-background:new 0 0 512 512;" xml:space="preserve">
<path style="fill:#FFDE33;" d="M464,512H48c-26.469,0-48-21.531-48-48V208c0-14.031,6-27.188,16.469-36.156
	c5.406-4.688,13.25-5.125,19.219-1.188l458.281,304c4.125,2.75,6.75,7.25,7.125,12.219c0.344,4.938-1.625,9.781-5.313,13.063
	C487.063,507.719,475.75,512,464,512z"/>
<path style="fill:#FFBC33;" d="M256,316.813V512h208c11.75,0,23.063-4.281,31.781-12.063c3.688-3.281,5.656-8.125,5.313-13.063
	c-0.375-4.969-3-9.469-7.125-12.219L256,316.813z"/>
<path style="fill:#FCB33B;" d="M507.203,188.156c-2.242-5.438-5.766-10.563-10.242-15.031c-0.641-0.969-1.602-1.594-2.563-2.25
	c-5.438-3.844-12.797-4.156-18.555-0.625L384,231.375l-136.961,91.188c-4.477,3.188-7.039,8-7.039,13.438s2.563,10.25,7.039,13.438
	l237.758,157.75C501.758,499.188,512,482.25,512,464V208C512,201.281,510.398,194.563,507.203,188.156z"/>
<g>
	<path style="fill:#F69838;" d="M4.231,188.194C12.245,170.318,29.668,160,48,160h64c8.844,0,16,7.156,16,16v64.313
		c0,5.875-3.25,11.313-8.438,14.094c-2.344,1.281-4.969,1.906-7.562,1.906c-3.094,0-6.156-0.906-8.813-2.656L4.231,188.194z"/>
	<path style="fill:#F69838;" d="M496.961,173.125c-0.641-0.969-1.602-1.594-2.563-2.25C485.758,163.844,475.203,160,464,160h-64
		c-8.961,0-16,7.031-16,16v64c0,5.75,3.203,11.188,8.32,14.094c2.563,1.281,5.117,1.906,7.68,1.906c3.203,0,6.078-0.969,8.961-2.563
		l98.242-65.281C504.961,182.719,501.438,177.594,496.961,173.125z"/>
</g>
<path style="fill:#5C5F66;" d="M496.961,173.125c2.344,2.344,4.383,4.875,6.156,7.531
	C501.094,178.094,499.359,175.188,496.961,173.125z"/>
<path style="fill:#E6EEFF;" d="M256.014,355.22L96,248.869V48c0-26.51,21.49-48,48-48h224c26.51,0,48,21.49,48,48v200.563
	L256.014,355.22z M400,240h0.313H400z"/>
<path style="fill:#FFFFFF;" d="M168,448H80c-8.844,0-16-7.156-16-16v-58c0-8.844,7.156-16,16-16h88c8.844,0,16,7.156,16,16v58
	C184,440.844,176.844,448,168,448z"/>
<path style="fill:#5C5F66;" d="M496.961,173.125c2.344,2.344,4.383,4.875,6.156,7.531
	C501.094,178.094,499.359,175.188,496.961,173.125z"/>
<path style="fill:#DAE2F2;" d="M368,0H256v355.219h0.016L416,248.563V48C416,21.5,394.508,0,368,0z"/>
<path id="SVGCleanerId_0" style="fill:#A1A7B3;" d="M240,94h-64c-8.284,0-15-6.716-15-15s6.716-15,15-15h64c8.284,0,15,6.716,15,15
	S248.284,94,240,94z"/>
<g>
	<path id="SVGCleanerId_0_1_" style="fill:#A1A7B3;" d="M240,94h-64c-8.284,0-15-6.716-15-15s6.716-15,15-15h64
		c8.284,0,15,6.716,15,15S248.284,94,240,94z"/>
</g>
<path style="fill:#A1A7B3;" d="M336,222H176c-8.284,0-15-6.716-15-15s6.716-15,15-15h160c8.284,0,15,6.716,15,15
	S344.284,222,336,222z"/>
<path style="fill:#9DA1A9;" d="M256,222h80c8.284,0,15-6.716,15-15s-6.716-15-15-15h-80V222z"/>
<path style="fill:#A1A7B3;" d="M336,158H176c-8.284,0-15-6.716-15-15s6.716-15,15-15h160c8.284,0,15,6.716,15,15
	S344.284,158,336,158z"/>
<path style="fill:#9DA1A9;" d="M256,158h80c8.284,0,15-6.716,15-15s-6.716-15-15-15h-80V158z"/>
<g>
</g>
<g>
</g>
<g>
</g>
<g>
</g>
<g>
</g>
<g>
</g>
<g>
</g>
<g>
</g>
<g>
</g>
<g>
</g>
<g>
</g>
<g>
</g>
<g>
</g>
<g>
</g>
<g>
</g>
</svg>
