<?xml version="1.0" ?><svg id="Layer_1" style="enable-background:new 0 0 64 64;" version="1.1" viewBox="0 0 64 64" xml:space="preserve" xmlns="http://www.w3.org/2000/svg" xmlns:xlink="http://www.w3.org/1999/xlink"><style type="text/css">
	.st0{fill:#FFFFFF;}
	.st1{fill-rule:evenodd;clip-rule:evenodd;fill:#FFFFFF;}
	.st2{fill:#D2E5F0;}
	.st3{fill:#B6CFE3;}
</style><g id="XMLID_6317_"><defs><path d="M57.5,57.5c-6,6-45,6-51,0c-6-6-6-45,0-51c6-6,45-6,51,0C63.5,12.5,63.5,51.5,57.5,57.5z" id="XMLID_6318_"/></defs><use style="overflow:visible;fill:#0F1231;" xlink:href="#XMLID_6318_"/><clipPath id="XMLID_2_"><use style="overflow:visible;" xlink:href="#XMLID_6318_"/></clipPath></g><g id="XMLID_6312_"><path class="st0" d="M32,15.8c-8.9,0-16.2,7.3-16.2,16.2c0,8.9,7.3,16.2,16.2,16.2c8.9,0,16.2-7.3,16.2-16.2   C48.2,23.1,40.9,15.8,32,15.8L32,15.8z M36.5,44.3c-0.1-1.3-0.2-2.8-0.2-3.5c0-0.5-0.1-1.7-1.3-2.5c4.7-0.4,6.9-3,7.1-6.4   c0.1-1.9-0.6-3.7-2-5c0.1-1.5,0-3.2-0.1-4c-1.1-0.3-3.5,1-4.2,1.6c-1.4-0.6-5-0.8-7.2,0c-1.5-1.1-3.3-1.7-4.2-1.6   c-0.9,1.9-0.3,3.8-0.1,4c-1.1,1-2.7,2.3-2.3,5c0.7,3.9,3.4,6,7.8,6.5c-0.9,0.2-1.1,0.9-1.2,1.2c-3,1.2-3.8-0.8-4.2-1.3   c-1.2-1.5-2.4-1.1-2.4-1.1c-0.1,0-0.1,0.1-0.1,0.2c0.1,0.3,0.7,0.7,0.8,0.7c0.9,0.7,1.3,1.9,1.5,2.3c1.3,2.2,4.4,1.3,4.4,1.3   c0,0.2,0,1.8,0,3c-5.6-1.5-9.7-6.6-9.7-12.7c0-7.3,5.9-13.2,13.2-13.2c7.3,0,13.2,5.9,13.2,13.2C45.2,37.7,41.6,42.5,36.5,44.3   L36.5,44.3z M36.5,44.3" id="XMLID_6313_"/></g></svg>